<svg xmlns="http://www.w3.org/2000/svg" xmlns:xlink="http://www.w3.org/1999/xlink" width="1080" zoomAndPan="magnify" viewBox="0 0 810 809.999993" height="1080" preserveAspectRatio="xMidYMid meet" version="1.2"><defs><clipPath id="2cfdeb9306"><path d="M 279 147.679688 L 360 147.679688 L 360 228 L 279 228 Z M 279 147.679688 "/></clipPath><clipPath id="3029f9351b"><path d="M 279 147.679688 L 291 147.679688 L 291 228 L 279 228 Z M 279 147.679688 "/></clipPath><clipPath id="0ae7275684"><path d="M 157.511719 379.207031 L 598.238281 379.207031 L 598.238281 662.179688 L 157.511719 662.179688 Z M 157.511719 379.207031 "/></clipPath></defs><g id="21cc59edda"><path style=" stroke:none;fill-rule:nonzero;fill:#eeeeee;fill-opacity:1;" d="M 324.234375 383 L 318.269531 383 C 311.625 383 306.234375 377.617188 306.234375 370.976562 L 306.234375 327.6875 L 336.269531 327.6875 L 336.269531 370.976562 C 336.269531 377.617188 330.882812 383 324.234375 383 "/><path style=" stroke:none;fill-rule:nonzero;fill:#dddddd;fill-opacity:1;" d="M 314.367188 371.441406 L 314.367188 327.6875 L 306.234375 327.6875 L 306.234375 371.441406 C 306.234375 377.824219 311.417969 383 317.8125 383 L 324.691406 383 C 324.90625 383 325.109375 382.980469 325.320312 382.96875 C 319.21875 382.640625 314.367188 377.613281 314.367188 371.441406 "/><g clip-rule="nonzero" clip-path="url(#2cfdeb9306)"><path style=" stroke:none;fill-rule:nonzero;fill:#cacaca;fill-opacity:1;" d="M 359.730469 227.371094 L 279.957031 227.371094 L 279.957031 147.679688 L 359.730469 147.679688 L 359.730469 227.371094 "/></g><g clip-rule="nonzero" clip-path="url(#3029f9351b)"><path style=" stroke:none;fill-rule:nonzero;fill:#8b8b8b;fill-opacity:1;" d="M 290.28125 227.371094 L 279.957031 227.371094 L 279.957031 147.679688 L 290.28125 147.679688 L 290.28125 227.371094 "/></g><path style=" stroke:none;fill-rule:nonzero;fill:#857a66;fill-opacity:1;" d="M 315.617188 191.742188 L 300.601562 191.742188 L 300.601562 176.742188 L 315.617188 176.742188 L 315.617188 191.742188 "/><path style=" stroke:none;fill-rule:nonzero;fill:#857a66;fill-opacity:1;" d="M 349.40625 191.742188 L 334.390625 191.742188 L 334.390625 176.742188 L 349.40625 176.742188 L 349.40625 191.742188 "/><path style=" stroke:none;fill-rule:nonzero;fill:#fafafa;fill-opacity:1;" d="M 340.78125 332.375 L 299.847656 332.375 C 283.679688 332.375 270.574219 319.28125 270.574219 303.132812 L 270.574219 223.621094 L 370.054688 223.621094 L 370.054688 303.132812 C 370.054688 319.28125 356.945312 332.375 340.78125 332.375 "/><path style=" stroke:none;fill-rule:nonzero;fill:#dddddd;fill-opacity:1;" d="M 282.460938 304.25 L 282.460938 223.621094 L 270.574219 223.621094 L 270.574219 304.25 C 270.574219 319.78125 283.175781 332.375 298.726562 332.375 L 310.617188 332.375 C 295.066406 332.375 282.460938 319.78125 282.460938 304.25 "/><path style=" stroke:none;fill-rule:nonzero;fill:#eeeeee;fill-opacity:1;" d="M 481.90625 383 L 475.941406 383 C 469.292969 383 463.90625 377.617188 463.90625 370.976562 L 463.90625 327.6875 L 493.9375 327.6875 L 493.9375 370.976562 C 493.9375 377.617188 488.550781 383 481.90625 383 "/><path style=" stroke:none;fill-rule:nonzero;fill:#dddddd;fill-opacity:1;" d="M 472.042969 371.441406 L 472.042969 327.6875 L 463.90625 327.6875 L 463.90625 371.441406 C 463.90625 377.824219 469.089844 383 475.480469 383 L 482.363281 383 C 482.578125 383 482.78125 382.980469 482.992188 382.96875 C 476.890625 382.640625 472.042969 377.613281 472.042969 371.441406 "/><path style=" stroke:none;fill-rule:nonzero;fill:#cacaca;fill-opacity:1;" d="M 498.007812 252.058594 L 459.214844 252.058594 L 459.214844 215.480469 C 459.214844 211.171875 462.707031 207.683594 467.019531 207.683594 L 490.195312 207.683594 C 494.511719 207.683594 498.007812 211.171875 498.007812 215.480469 L 498.007812 252.058594 "/><path style=" stroke:none;fill-rule:nonzero;fill:#8b8b8b;fill-opacity:1;" d="M 472.351562 207.683594 L 466.722656 207.683594 C 462.574219 207.683594 459.214844 211.039062 459.214844 215.183594 L 459.214844 252.058594 L 464.84375 252.058594 L 464.84375 215.183594 C 464.84375 211.039062 468.207031 207.683594 472.351562 207.683594 "/><path style=" stroke:none;fill-rule:nonzero;fill:#fafafa;fill-opacity:1;" d="M 492.175781 331.4375 L 465.039062 331.4375 C 457.675781 331.4375 451.707031 325.472656 451.707031 318.117188 L 451.707031 249.558594 L 505.515625 249.558594 L 505.515625 318.117188 C 505.515625 325.472656 499.542969 331.4375 492.175781 331.4375 "/><path style=" stroke:none;fill-rule:nonzero;fill:#dddddd;fill-opacity:1;" d="M 460.464844 318.625 L 460.464844 249.558594 L 451.707031 249.558594 L 451.707031 318.625 C 451.707031 325.703125 457.449219 331.4375 464.53125 331.4375 L 473.289062 331.4375 C 466.207031 331.4375 460.464844 325.703125 460.464844 318.625 "/><path style=" stroke:none;fill-rule:nonzero;fill:#c4ad50;fill-opacity:1;" d="M 494.875 228.933594 L 468.597656 228.933594 L 468.597656 215.183594 L 494.875 215.183594 L 494.875 228.933594 "/><path style=" stroke:none;fill-rule:nonzero;fill:#857a66;fill-opacity:1;" d="M 474.382812 226.429688 L 471.570312 226.429688 L 471.570312 218.308594 L 474.382812 218.308594 L 474.382812 226.429688 "/><path style=" stroke:none;fill-rule:nonzero;fill:#857a66;fill-opacity:1;" d="M 480.015625 226.429688 L 477.199219 226.429688 L 477.199219 218.308594 L 480.015625 218.308594 L 480.015625 226.429688 "/><path style=" stroke:none;fill-rule:nonzero;fill:#857a66;fill-opacity:1;" d="M 485.644531 226.429688 L 482.832031 226.429688 L 482.832031 218.308594 L 485.644531 218.308594 L 485.644531 226.429688 "/><path style=" stroke:none;fill-rule:nonzero;fill:#857a66;fill-opacity:1;" d="M 491.28125 226.429688 L 488.464844 226.429688 L 488.464844 218.308594 L 491.28125 218.308594 L 491.28125 226.429688 "/><g clip-rule="nonzero" clip-path="url(#0ae7275684)"><path style=" stroke:none;fill-rule:nonzero;fill:#cacaca;fill-opacity:1;" d="M 460.578125 599.453125 C 466.953125 602.460938 473.523438 604.992188 480.394531 606.886719 C 501.316406 612.667969 531.070312 617.4375 554.03125 607.367188 C 568.007812 601.238281 579.492188 587.972656 583.289062 573.574219 C 586.371094 561.882812 582.152344 545.203125 573.253906 533.914062 C 554.570312 510.191406 522.730469 503.4375 489.921875 502.371094 C 486.84375 528.398438 481.632812 551.722656 474.300781 572.21875 C 470.757812 582.109375 466.21875 591.132812 460.578125 599.453125 Z M 258.960938 523.117188 C 252.800781 523.117188 246.585938 523.421875 240.261719 524.019531 C 209.949219 526.886719 189.65625 536.921875 178.21875 554.6875 C 163.339844 577.804688 175.242188 604.1875 192.59375 618.917969 C 211.554688 635.007812 236.441406 644.710938 264.566406 646.988281 C 300.535156 649.898438 323.78125 647.40625 356.605469 641.453125 C 383.097656 636.648438 417.742188 625.265625 435.53125 607.726562 C 436.824219 606.453125 438.070312 605.164062 439.28125 603.851562 C 426.648438 596.359375 414.753906 587.621094 403.066406 579.035156 C 387.257812 567.425781 370.910156 555.421875 353.402344 547.09375 C 318.832031 530.652344 289.585938 523.117188 258.960938 523.117188 Z M 292.777344 662.179688 C 283.722656 662.179688 274.125 661.769531 263.4375 660.910156 C 232.375 658.398438 204.75 647.558594 183.542969 629.558594 C 171.597656 619.421875 163.035156 606.085938 159.429688 592.015625 C 155.359375 576.121094 157.792969 560.601562 166.457031 547.132812 C 180.363281 525.519531 204.078125 513.414062 238.941406 510.117188 C 279.421875 506.289062 315.445312 513.574219 359.414062 534.484375 C 378.121094 543.378906 395.011719 555.789062 411.347656 567.785156 C 423.6875 576.851562 435.652344 585.636719 448.125 592.875 C 453.515625 585.171875 457.820312 576.769531 461.132812 567.515625 C 467.980469 548.375 472.898438 526.574219 475.867188 502.230469 C 471.148438 502.28125 466.441406 502.410156 461.785156 502.59375 C 419.089844 504.269531 370.878906 502.117188 336.984375 473.425781 C 311.949219 452.226562 310.390625 414.902344 312.167969 381.191406 L 326.128906 381.921875 C 324.535156 412.222656 325.648438 445.519531 346.027344 462.773438 C 376.261719 488.367188 421.230469 490.214844 461.234375 488.636719 C 466.550781 488.429688 471.933594 488.285156 477.335938 488.25 C 480.171875 456.257812 479.886719 420.230469 476.472656 380.40625 L 490.402344 379.214844 C 493.847656 419.371094 494.15625 455.863281 491.34375 488.445312 C 527.226562 489.722656 562.4375 497.597656 584.246094 525.273438 C 595.820312 539.964844 600.988281 561.289062 596.808594 577.132812 C 591.894531 595.773438 577.65625 612.257812 559.652344 620.15625 C 538.199219 629.566406 510.28125 629.632812 476.667969 620.347656 C 468.007812 617.957031 459.777344 614.648438 451.878906 610.730469 C 449.816406 613.101562 447.640625 615.414062 445.351562 617.667969 C 420.113281 642.550781 372.953125 652.683594 359.105469 655.195312 C 334.777344 659.605469 315.503906 662.179688 292.777344 662.179688 "/></g></g></svg>