<svg xmlns="http://www.w3.org/2000/svg" xmlns:xlink="http://www.w3.org/1999/xlink" width="1080" zoomAndPan="magnify" viewBox="0 0 810 809.999993" height="1080" preserveAspectRatio="xMidYMid meet" version="1.2"><defs><clipPath id="6dadc9ecb9"><path d="M 288.113281 174 L 521 174 L 521 636 L 288.113281 636 Z M 288.113281 174 "/></clipPath><clipPath id="4b0223c8b2"><path d="M 288.113281 173.542969 L 522 173.542969 L 522 636 L 288.113281 636 Z M 288.113281 173.542969 "/></clipPath><clipPath id="34d0eb615a"><path d="M 325 173.542969 L 484 173.542969 L 484 176 L 325 176 Z M 325 173.542969 "/></clipPath><clipPath id="61ad5d1d51"><path d="M 288.113281 173.542969 L 522 173.542969 L 522 636 L 288.113281 636 Z M 288.113281 173.542969 "/></clipPath></defs><g id="d166b02fa8"><g clip-rule="nonzero" clip-path="url(#6dadc9ecb9)"><path style=" stroke:none;fill-rule:nonzero;fill:#efefef;fill-opacity:1;" d="M 330.988281 635.148438 C 316.550781 635.148438 303.257812 627.90625 295.40625 615.71875 C 291.054688 608.902344 288.699219 601.058594 288.699219 592.914062 L 288.699219 216.320312 C 288.699219 205.21875 292.988281 194.78125 300.722656 186.816406 C 308.753906 178.609375 319.507812 174.085938 330.925781 174.085938 L 478.578125 174.085938 C 490.539062 174.085938 501.957031 179.152344 509.992188 188.082031 C 511.019531 189.230469 512.046875 190.4375 512.949219 191.761719 C 518.085938 198.941406 520.863281 207.449219 520.863281 216.320312 L 520.863281 592.914062 C 520.863281 602.929688 517.300781 612.644531 510.835938 620.183594 C 502.800781 629.65625 491.019531 635.085938 478.636719 635.085938 L 330.988281 635.085938 "/></g><g clip-rule="nonzero" clip-path="url(#4b0223c8b2)"><path style=" stroke:none;fill-rule:nonzero;fill:#000000;fill-opacity:1;" d="M 478.636719 174.871094 C 490.355469 174.871094 501.652344 179.878906 509.507812 188.625 C 510.535156 189.710938 511.5 190.917969 512.40625 192.1875 C 517.480469 199.246094 520.140625 207.570312 520.140625 216.320312 L 520.140625 592.914062 C 520.140625 602.75 516.636719 612.28125 510.292969 619.761719 C 502.378906 629.054688 490.839844 634.421875 478.636719 634.421875 L 330.988281 634.421875 C 316.789062 634.421875 303.742188 627.304688 296.007812 615.359375 C 291.71875 608.660156 289.421875 600.9375 289.421875 592.972656 L 289.421875 216.320312 C 289.421875 205.457031 293.59375 195.140625 301.265625 187.359375 C 309.117188 179.273438 319.691406 174.871094 330.988281 174.871094 L 478.636719 174.871094 M 478.636719 173.363281 L 330.988281 173.363281 C 318.90625 173.363281 308.03125 178.308594 300.238281 186.273438 C 292.6875 193.996094 288.035156 204.613281 288.035156 216.257812 L 288.035156 592.855469 C 288.035156 601.359375 290.511719 609.324219 294.859375 616.019531 C 302.53125 627.90625 315.824219 635.75 331.046875 635.75 L 478.695312 635.75 C 491.804688 635.75 503.585938 629.898438 511.441406 620.605469 C 517.785156 613.125 521.652344 603.410156 521.652344 592.855469 L 521.652344 216.320312 C 521.652344 206.96875 518.691406 198.398438 513.617188 191.339844 C 512.710938 190.074219 511.683594 188.808594 510.59375 187.601562 C 502.742188 178.914062 491.324219 173.363281 478.636719 173.363281 "/></g><path style=" stroke:none;fill-rule:nonzero;fill:#f7f7f7;fill-opacity:1;" d="M 375.269531 203.648438 C 375.390625 203.769531 375.574219 203.828125 375.753906 203.949219 C 376.238281 204.191406 376.78125 204.371094 377.324219 204.492188 C 376.78125 204.371094 376.238281 204.191406 375.753906 203.949219 C 375.632812 203.828125 375.453125 203.769531 375.269531 203.648438 M 373.15625 200.269531 C 373.09375 199.96875 373.09375 199.726562 373.09375 199.425781 L 373.09375 198.882812 C 373.09375 197.074219 374 195.503906 375.453125 194.597656 C 376.238281 194.054688 377.203125 193.753906 378.230469 193.753906 L 405.417969 193.753906 C 407.109375 193.753906 408.558594 194.539062 409.464844 195.746094 C 410.128906 196.589844 410.492188 197.675781 410.492188 198.820312 L 410.492188 199.367188 C 410.492188 199.789062 410.429688 200.210938 410.308594 200.632812 C 410.371094 200.453125 410.371094 200.332031 410.429688 200.148438 L 410.492188 201.113281 L 410.492188 201.71875 C 410.492188 203.167969 410.007812 204.554688 409.222656 205.578125 C 408.316406 206.785156 406.925781 207.511719 405.417969 207.511719 L 378.171875 207.511719 C 377.324219 207.511719 376.480469 207.269531 375.753906 206.847656 C 374.183594 205.820312 373.09375 203.949219 373.09375 201.71875 L 373.09375 201.113281 L 373.15625 200.269531 M 426.921875 202.503906 C 426.199219 201.597656 425.777344 200.453125 425.777344 199.183594 C 425.777344 196.226562 428.191406 193.816406 431.152344 193.816406 C 434.113281 193.816406 436.527344 196.226562 436.527344 199.183594 C 436.527344 200.570312 435.984375 201.898438 435.078125 202.804688 C 435.742188 202.082031 436.226562 201.234375 436.40625 200.269531 L 436.527344 201.476562 C 436.527344 204.855469 434.113281 207.570312 431.152344 207.570312 C 428.191406 207.570312 425.777344 204.855469 425.777344 201.476562 L 425.894531 200.269531 C 426.078125 201.054688 426.441406 201.839844 426.921875 202.503906 M 475.617188 180.664062 L 337.148438 180.664062 C 325.851562 180.664062 315.644531 185.429688 308.332031 193.03125 C 303.320312 198.277344 299.632812 204.855469 297.941406 212.214844 C 297.882812 213.179688 297.820312 214.207031 297.820312 215.234375 L 297.820312 487.996094 C 398.46875 425.429688 478.152344 257.765625 505.582031 194.238281 C 498.210938 185.910156 487.515625 180.664062 475.617188 180.664062 "/><path style=" stroke:none;fill-rule:nonzero;fill:#ffffff;fill-opacity:1;" d="M 378.171875 204.011719 C 377.382812 204.011719 376.660156 203.828125 375.996094 203.46875 C 374.484375 202.683594 373.578125 201.113281 373.578125 199.425781 L 373.578125 198.882812 C 373.578125 197.3125 374.363281 195.867188 375.691406 195.019531 C 376.417969 194.539062 377.324219 194.296875 378.171875 194.296875 L 405.355469 194.296875 C 406.804688 194.296875 408.136719 194.960938 409.042969 196.105469 C 409.644531 196.890625 409.945312 197.855469 409.945312 198.882812 L 409.945312 199.425781 C 409.945312 200.570312 409.523438 201.597656 408.800781 202.441406 C 407.953125 203.40625 406.683594 204.011719 405.355469 204.011719 L 378.171875 204.011719 "/><path style=" stroke:none;fill-rule:nonzero;fill:#666666;fill-opacity:1;" d="M 405.417969 194.839844 C 406.683594 194.839844 407.894531 195.445312 408.679688 196.46875 C 409.222656 197.191406 409.523438 198.039062 409.523438 198.941406 L 409.523438 199.484375 C 409.523438 200.453125 409.160156 201.417969 408.496094 202.199219 C 407.710938 203.046875 406.625 203.589844 405.476562 203.589844 L 378.289062 203.589844 C 377.625 203.589844 376.960938 203.40625 376.359375 203.105469 C 375.027344 202.382812 374.242188 200.996094 374.242188 199.546875 L 374.242188 199.003906 C 374.242188 197.617188 374.96875 196.347656 376.117188 195.5625 C 376.78125 195.140625 377.566406 194.902344 378.351562 194.902344 L 405.417969 194.902344 M 405.417969 193.816406 L 378.230469 193.816406 C 377.203125 193.816406 376.238281 194.117188 375.453125 194.660156 C 374.0625 195.5625 373.09375 197.132812 373.09375 198.941406 L 373.09375 199.484375 C 373.09375 201.417969 374.183594 203.105469 375.8125 204.011719 C 376.539062 204.371094 377.382812 204.613281 378.230469 204.613281 L 405.417969 204.613281 C 406.925781 204.613281 408.316406 203.949219 409.222656 202.863281 C 410.007812 201.960938 410.492188 200.753906 410.492188 199.484375 L 410.492188 198.941406 C 410.492188 197.796875 410.128906 196.710938 409.464844 195.867188 C 408.558594 194.597656 407.046875 193.816406 405.417969 193.816406 "/><path style=" stroke:none;fill-rule:nonzero;fill:#ffffff;fill-opacity:1;" d="M 431.152344 204.011719 C 428.492188 204.011719 426.320312 201.839844 426.320312 199.183594 C 426.320312 196.53125 428.492188 194.359375 431.152344 194.359375 C 433.808594 194.359375 435.984375 196.53125 435.984375 199.183594 C 436.046875 201.839844 433.871094 204.011719 431.152344 204.011719 "/><path style=" stroke:none;fill-rule:nonzero;fill:#666666;fill-opacity:1;" d="M 431.152344 194.839844 C 433.570312 194.839844 435.5 196.769531 435.5 199.183594 C 435.5 201.597656 433.570312 203.527344 431.152344 203.527344 C 428.734375 203.527344 426.800781 201.597656 426.800781 199.183594 C 426.863281 196.769531 428.796875 194.839844 431.152344 194.839844 M 431.152344 193.816406 C 428.191406 193.816406 425.777344 196.226562 425.777344 199.183594 C 425.777344 202.140625 428.191406 204.554688 431.152344 204.554688 C 434.113281 204.554688 436.527344 202.140625 436.527344 199.183594 C 436.527344 196.226562 434.171875 193.816406 431.152344 193.816406 "/><path style=" stroke:none;fill-rule:nonzero;fill:#a8a8a8;fill-opacity:1;" d="M 478.636719 174.871094 L 330.988281 174.871094 C 329.234375 174.871094 327.542969 174.992188 325.851562 175.171875 C 321.078125 176.679688 316.667969 179.152344 312.863281 182.351562 C 318.90625 178.914062 325.851562 176.921875 333.285156 176.921875 L 476.460938 176.921875 C 483.894531 176.921875 490.839844 178.914062 496.882812 182.351562 C 493.074219 179.152344 488.664062 176.679688 483.890625 175.171875 C 482.140625 174.929688 480.386719 174.871094 478.636719 174.871094 "/><g clip-rule="nonzero" clip-path="url(#34d0eb615a)"><path style=" stroke:none;fill-rule:nonzero;fill:#000000;fill-opacity:1;" d="M 472.414062 173.421875 L 337.210938 173.421875 C 333.285156 173.421875 329.476562 174.027344 325.851562 175.171875 C 327.542969 174.992188 329.296875 174.871094 330.988281 174.871094 L 478.636719 174.871094 C 480.386719 174.871094 482.140625 174.992188 483.832031 175.171875 C 480.207031 174.027344 476.402344 173.421875 472.414062 173.421875 "/></g><path style=" stroke:none;fill-rule:nonzero;fill:#cbcbcb;fill-opacity:1;" d="M 312.804688 182.351562 C 309.300781 184.34375 306.15625 186.816406 303.378906 189.710938 C 296.070312 197.3125 291.539062 207.75 291.539062 219.214844 L 291.539062 590.019531 C 291.539062 598.402344 293.953125 606.246094 298.125 612.824219 C 305.554688 624.527344 318.480469 632.25 333.222656 632.25 L 476.402344 632.25 C 489.148438 632.25 500.507812 626.457031 508.179688 617.347656 C 514.339844 609.988281 518.085938 600.457031 518.085938 590.019531 L 518.085938 219.214844 C 518.085938 210.042969 515.1875 201.539062 510.292969 194.597656 C 506.730469 189.589844 502.136719 185.367188 496.820312 182.351562 C 499.722656 184.765625 502.320312 187.660156 504.492188 190.859375 C 509.144531 197.734375 511.863281 206.121094 511.863281 215.171875 L 511.863281 582.113281 C 511.863281 592.429688 508.359375 601.902344 502.5 609.144531 C 495.25 618.191406 484.496094 623.925781 472.472656 623.925781 L 337.210938 623.925781 C 323.316406 623.925781 311.050781 616.261719 304.042969 604.679688 C 300.117188 598.164062 297.820312 590.441406 297.820312 582.113281 L 297.820312 487.996094 C 297.519531 488.175781 297.15625 488.417969 296.855469 488.597656 L 296.855469 221.628906 C 296.855469 218.371094 297.21875 215.234375 297.941406 212.214844 C 298.605469 202.019531 302.714844 192.910156 309.058594 186.03125 C 310.207031 184.703125 311.472656 183.496094 312.804688 182.351562 "/><path style=" stroke:none;fill-rule:nonzero;fill:#d2d2d2;fill-opacity:1;" d="M 297.882812 212.214844 C 297.15625 215.234375 296.792969 218.429688 296.792969 221.628906 L 296.792969 488.597656 C 297.097656 488.417969 297.457031 488.175781 297.761719 487.996094 L 297.761719 215.234375 C 297.820312 214.207031 297.820312 213.179688 297.882812 212.214844 "/><path style=" stroke:none;fill-rule:nonzero;fill:#989898;fill-opacity:1;" d="M 289.421875 603.953125 C 290.570312 608.296875 292.382812 612.402344 294.800781 616.140625 C 298.363281 621.691406 303.199219 626.398438 308.875 629.777344 C 303.199219 626.398438 298.363281 621.691406 294.800781 616.140625 C 292.445312 612.402344 290.570312 608.296875 289.421875 603.953125 M 305.132812 181.988281 C 303.378906 183.316406 301.746094 184.765625 300.238281 186.332031 C 297.640625 188.988281 295.34375 192.003906 293.53125 195.324219 C 295.40625 192.066406 297.640625 189.046875 300.238281 186.332031 C 301.746094 184.765625 303.378906 183.316406 305.132812 181.988281 M 305.25 181.929688 C 305.25 181.929688 305.191406 181.988281 305.191406 181.988281 C 305.191406 181.988281 305.191406 181.929688 305.25 181.929688 M 305.371094 181.867188 C 305.3125 181.867188 305.3125 181.929688 305.25 181.929688 C 305.3125 181.929688 305.3125 181.867188 305.371094 181.867188 M 493.921875 176.199219 C 500.386719 178.671875 506.0625 182.59375 510.59375 187.601562 C 511.683594 188.808594 512.648438 190.015625 513.617188 191.339844 C 518.691406 198.398438 521.652344 207.027344 521.652344 216.320312 L 521.652344 592.914062 C 521.652344 598.34375 520.625 603.53125 518.8125 608.359375 C 520.683594 603.59375 521.652344 598.34375 521.652344 592.914062 L 521.652344 216.320312 C 521.652344 207.027344 518.691406 198.398438 513.617188 191.339844 C 508.722656 184.523438 501.894531 179.214844 493.921875 176.199219 "/><path style=" stroke:none;fill-rule:nonzero;fill:#8f8f8f;fill-opacity:1;" d="M 325.851562 175.171875 C 316.550781 176.316406 307.96875 180.542969 301.324219 187.359375 C 293.714844 195.140625 289.484375 205.457031 289.484375 216.320312 L 289.484375 592.914062 C 289.484375 600.878906 291.78125 608.601562 296.070312 615.296875 C 303.742188 627.242188 316.851562 634.363281 331.046875 634.363281 L 478.695312 634.363281 C 490.902344 634.363281 502.4375 628.992188 510.351562 619.703125 C 516.695312 612.21875 520.199219 602.6875 520.199219 592.855469 L 520.199219 216.320312 C 520.199219 207.570312 517.542969 199.246094 512.46875 192.1875 C 511.5625 190.917969 510.59375 189.710938 509.566406 188.625 C 502.863281 181.207031 493.679688 176.4375 483.890625 175.171875 C 488.664062 176.679688 493.015625 179.152344 496.882812 182.351562 C 502.199219 185.367188 506.789062 189.589844 510.351562 194.597656 C 515.246094 201.539062 518.148438 210.042969 518.148438 219.214844 L 518.148438 590.019531 C 518.148438 600.457031 514.402344 609.988281 508.238281 617.347656 C 500.566406 626.457031 489.207031 632.25 476.460938 632.25 L 333.285156 632.25 C 318.542969 632.25 305.613281 624.527344 298.183594 612.824219 C 294.015625 606.246094 291.597656 598.402344 291.597656 590.019531 L 291.597656 219.214844 C 291.597656 207.75 296.128906 197.3125 303.4375 189.710938 C 306.21875 186.816406 309.359375 184.34375 312.863281 182.351562 C 316.667969 179.152344 321.078125 176.679688 325.851562 175.171875 "/><g clip-rule="nonzero" clip-path="url(#61ad5d1d51)"><path style=" stroke:none;fill-rule:nonzero;fill:#000000;fill-opacity:1;" d="M 478.636719 173.421875 L 472.414062 173.421875 C 476.402344 173.421875 480.207031 174.027344 483.832031 175.171875 C 493.679688 176.4375 502.800781 181.144531 509.507812 188.625 C 510.535156 189.710938 511.5 190.917969 512.40625 192.1875 C 517.480469 199.246094 520.140625 207.570312 520.140625 216.320312 L 520.140625 592.914062 C 520.140625 602.75 516.636719 612.28125 510.292969 619.761719 C 502.378906 629.054688 490.839844 634.421875 478.636719 634.421875 L 330.988281 634.421875 C 316.789062 634.421875 303.742188 627.304688 296.007812 615.359375 C 291.71875 608.660156 289.421875 600.9375 289.421875 592.972656 L 289.421875 216.320312 C 289.421875 205.457031 293.59375 195.140625 301.265625 187.359375 C 307.910156 180.542969 316.488281 176.316406 325.792969 175.171875 C 329.355469 174.027344 333.222656 173.421875 337.148438 173.421875 L 330.925781 173.421875 C 321.382812 173.421875 312.5625 176.558594 305.371094 181.808594 C 305.371094 181.808594 305.3125 181.808594 305.3125 181.867188 C 305.3125 181.867188 305.25 181.867188 305.25 181.929688 C 305.191406 181.929688 305.191406 181.988281 305.132812 181.988281 C 305.132812 181.988281 305.070312 182.050781 305.070312 182.050781 C 303.320312 183.378906 301.6875 184.824219 300.175781 186.332031 C 297.578125 188.988281 295.285156 192.003906 293.472656 195.324219 C 289.96875 201.539062 287.972656 208.71875 287.972656 216.320312 L 287.972656 592.914062 C 287.972656 596.714844 288.457031 600.394531 289.421875 603.953125 C 290.570312 608.296875 292.382812 612.402344 294.800781 616.082031 C 298.363281 621.632812 303.199219 626.339844 308.875 629.714844 C 315.339844 633.578125 322.890625 635.808594 330.988281 635.808594 L 478.636719 635.808594 C 491.746094 635.808594 503.527344 629.898438 511.441406 620.667969 C 514.523438 617.046875 517.058594 612.882812 518.8125 608.296875 C 520.625 603.53125 521.652344 598.285156 521.652344 592.855469 L 521.652344 216.320312 C 521.652344 206.96875 518.691406 198.398438 513.617188 191.339844 C 512.710938 190.074219 511.683594 188.808594 510.59375 187.601562 C 506.0625 182.59375 500.386719 178.609375 493.921875 176.199219 C 489.148438 174.386719 484.011719 173.421875 478.636719 173.421875 "/></g><path style=" stroke:none;fill-rule:nonzero;fill:#adadad;fill-opacity:1;" d="M 410.429688 200.210938 C 410.429688 200.390625 410.371094 200.511719 410.308594 200.691406 C 410.128906 201.476562 409.707031 202.199219 409.160156 202.804688 C 408.253906 203.890625 406.867188 204.554688 405.355469 204.554688 L 378.171875 204.554688 C 377.867188 204.554688 377.566406 204.554688 377.324219 204.492188 C 376.78125 204.371094 376.238281 204.253906 375.753906 203.949219 C 375.574219 203.890625 375.453125 203.769531 375.269531 203.648438 C 374.121094 202.863281 373.335938 201.65625 373.09375 200.269531 L 373.035156 201.175781 L 373.035156 201.777344 C 373.035156 204.011719 374.121094 205.941406 375.691406 206.90625 C 376.417969 207.328125 377.203125 207.570312 378.109375 207.570312 L 405.355469 207.570312 C 406.867188 207.570312 408.253906 206.847656 409.160156 205.640625 C 409.949219 204.613281 410.429688 203.226562 410.429688 201.777344 L 410.429688 200.210938 "/><path style=" stroke:none;fill-rule:nonzero;fill:#484848;fill-opacity:1;" d="M 410.371094 200.691406 C 410.128906 201.476562 409.765625 202.199219 409.222656 202.804688 C 408.316406 203.890625 406.925781 204.554688 405.417969 204.554688 L 378.171875 204.554688 C 377.867188 204.554688 377.625 204.554688 377.324219 204.492188 C 377.625 204.554688 377.867188 204.554688 378.171875 204.554688 L 405.355469 204.554688 C 406.867188 204.554688 408.253906 203.890625 409.160156 202.804688 C 409.765625 202.199219 410.128906 201.476562 410.371094 200.691406 M 373.15625 200.269531 C 373.398438 201.65625 374.183594 202.863281 375.332031 203.648438 C 374.183594 202.863281 373.398438 201.65625 373.15625 200.269531 "/><path style=" stroke:none;fill-rule:nonzero;fill:#adadad;fill-opacity:1;" d="M 436.46875 200.269531 C 436.289062 201.234375 435.804688 202.140625 435.140625 202.804688 C 434.171875 203.890625 432.785156 204.492188 431.210938 204.492188 C 429.460938 204.492188 427.949219 203.710938 426.984375 202.441406 C 426.5 201.777344 426.136719 201.054688 425.957031 200.210938 L 425.835938 201.417969 C 425.835938 204.796875 428.253906 207.511719 431.210938 207.511719 C 434.171875 207.511719 436.589844 204.796875 436.589844 201.417969 L 436.46875 200.269531 "/><path style=" stroke:none;fill-rule:nonzero;fill:#484848;fill-opacity:1;" d="M 426.921875 202.503906 C 427.890625 203.769531 429.460938 204.554688 431.152344 204.554688 C 432.722656 204.554688 434.113281 203.890625 435.078125 202.863281 C 434.113281 203.890625 432.664062 204.554688 431.152344 204.554688 C 429.460938 204.554688 427.949219 203.710938 426.921875 202.503906 "/><path style=" stroke:none;fill-rule:nonzero;fill:#ffffff;fill-opacity:1;" d="M 512.226562 194.054688 C 511.320312 192.789062 510.351562 191.582031 509.265625 190.375 C 501.53125 181.75 490.234375 176.316406 477.730469 176.316406 L 331.953125 176.316406 C 320.054688 176.316406 309.300781 181.207031 301.566406 189.109375 C 294.074219 196.769531 289.484375 207.207031 289.484375 218.730469 L 289.484375 590.5625 C 289.484375 599.007812 291.960938 606.851562 296.191406 613.425781 C 303.742188 625.132812 316.910156 632.914062 331.894531 632.914062 L 334.792969 632.914062 C 319.992188 632.914062 307.0625 625.191406 299.632812 613.488281 C 295.464844 606.910156 293.046875 599.066406 293.046875 590.679688 L 293.046875 220.242188 C 293.046875 208.777344 297.578125 198.339844 304.949219 190.738281 C 312.5625 182.894531 323.132812 178.007812 334.855469 178.007812 L 478.394531 178.007812 C 490.71875 178.007812 501.835938 183.4375 509.445312 192.003906 C 510.472656 193.152344 511.441406 194.417969 512.347656 195.683594 C 517.242188 202.625 520.140625 211.070312 520.140625 220.242188 L 520.140625 218.671875 C 520.140625 209.5 517.179688 200.996094 512.226562 194.054688 Z M 512.226562 194.054688 "/></g></svg>