<svg xmlns="http://www.w3.org/2000/svg" xmlns:xlink="http://www.w3.org/1999/xlink" width="1080" zoomAndPan="magnify" viewBox="0 0 810 809.999993" height="1080" preserveAspectRatio="xMidYMid meet" version="1.0"><defs><g/><clipPath id="92aea1e4dc"><rect x="0" width="810" y="0" height="810"/></clipPath></defs><g transform="matrix(1, 0, 0, 1, 0, 0.000000000000039746)"><g clip-path="url(#92aea1e4dc)"><g fill="#4e37ff" fill-opacity="1"><g transform="translate(-20.506325, 601.322115)"><g><path d="M 234.515625 8.015625 C 193.710938 8.015625 157.484375 -0.847656 125.828125 -18.578125 C 94.179688 -36.316406 69.394531 -60.820312 51.46875 -92.09375 C 33.550781 -123.363281 24.59375 -159.398438 24.59375 -200.203125 C 24.59375 -241.003906 33.457031 -277.039062 51.1875 -308.3125 C 68.925781 -339.582031 93.523438 -364.082031 124.984375 -381.8125 C 156.441406 -399.539062 192.378906 -408.40625 232.796875 -408.40625 C 265.210938 -408.40625 295.148438 -402.6875 322.609375 -391.25 C 350.066406 -379.8125 373.421875 -363.695312 392.671875 -342.90625 C 411.929688 -322.125 425.566406 -297.625 433.578125 -269.40625 L 335.765625 -269.40625 C 326.234375 -286.945312 312.597656 -300.578125 294.859375 -310.296875 C 277.128906 -320.023438 257.015625 -324.890625 234.515625 -324.890625 C 211.253906 -324.890625 190.660156 -319.550781 172.734375 -308.875 C 154.816406 -298.195312 140.804688 -283.515625 130.703125 -264.828125 C 120.597656 -246.148438 115.546875 -224.609375 115.546875 -200.203125 C 115.546875 -176.171875 120.5 -154.8125 130.40625 -136.125 C 140.320312 -117.445312 154.242188 -102.671875 172.171875 -91.796875 C 190.097656 -80.929688 211.257812 -75.5 235.65625 -75.5 C 265.019531 -75.5 289.425781 -82.9375 308.875 -97.8125 C 328.320312 -112.6875 340.90625 -132.328125 346.625 -156.734375 L 216.78125 -156.734375 L 216.78125 -227.078125 L 442.734375 -227.078125 C 445.015625 -192.765625 441.675781 -161.304688 432.71875 -132.703125 C 423.757812 -104.097656 410.03125 -79.210938 391.53125 -58.046875 C 373.039062 -36.890625 350.539062 -20.585938 324.03125 -9.140625 C 297.53125 2.296875 267.691406 8.015625 234.515625 8.015625 Z M 234.515625 8.015625 "/></g></g></g><g fill="#4e37ff" fill-opacity="1"><g transform="translate(446.238626, 601.322115)"><g><path d="M 191.046875 8.015625 C 157.867188 8.015625 128.597656 1.34375 103.234375 -12 C 77.878906 -25.351562 58.050781 -43.945312 43.75 -67.78125 C 29.457031 -91.613281 22.3125 -119.164062 22.3125 -150.4375 C 22.3125 -181.707031 29.457031 -209.160156 43.75 -232.796875 C 58.050781 -256.441406 77.878906 -274.9375 103.234375 -288.28125 C 128.597656 -301.632812 157.867188 -308.3125 191.046875 -308.3125 C 224.222656 -308.3125 253.488281 -301.632812 278.84375 -288.28125 C 304.207031 -274.9375 323.941406 -256.441406 338.046875 -232.796875 C 352.160156 -209.160156 359.21875 -181.707031 359.21875 -150.4375 C 359.21875 -119.164062 352.160156 -91.613281 338.046875 -67.78125 C 323.941406 -43.945312 304.207031 -25.351562 278.84375 -12 C 253.488281 1.34375 224.222656 8.015625 191.046875 8.015625 Z M 108.109375 -150.4375 C 108.109375 -126.03125 115.828125 -106.007812 131.265625 -90.375 C 146.710938 -74.738281 166.640625 -66.921875 191.046875 -66.921875 C 215.453125 -66.921875 235.28125 -74.738281 250.53125 -90.375 C 265.789062 -106.007812 273.421875 -126.03125 273.421875 -150.4375 C 273.421875 -175.21875 265.789062 -195.332031 250.53125 -210.78125 C 235.28125 -226.226562 215.453125 -233.953125 191.046875 -233.953125 C 166.640625 -233.953125 146.710938 -226.226562 131.265625 -210.78125 C 115.828125 -195.332031 108.109375 -175.21875 108.109375 -150.4375 Z M 108.109375 -150.4375 "/></g></g></g></g></g></svg>