<svg xmlns="http://www.w3.org/2000/svg" xmlns:xlink="http://www.w3.org/1999/xlink" width="320" zoomAndPan="magnify" viewBox="0 0 240 239.999995" height="320" preserveAspectRatio="xMidYMid meet" version="1.0"><defs><g/><clipPath id="61b3ef640c"><rect x="0" width="193" y="0" height="190"/></clipPath></defs><rect x="-24" width="288" fill="#ffffff" y="-23.999999" height="287.999994" fill-opacity="1"/><rect x="-24" width="288" fill="#000000" y="-23.999999" height="287.999994" fill-opacity="1"/><g transform="matrix(1, 0, 0, 1, 24, 24)"><g clip-path="url(#61b3ef640c)"><g fill="#ffffff" fill-opacity="1"><g transform="translate(0.00000112, 139.024637)"><g><path d="M 54.03125 1.703125 C 47.332031 1.703125 41.15625 0.527344 35.5 -1.8125 C 29.84375 -4.164062 24.925781 -7.453125 20.75 -11.671875 C 16.570312 -15.898438 13.328125 -20.90625 11.015625 -26.6875 C 8.710938 -32.476562 7.5625 -38.8125 7.5625 -45.6875 C 7.5625 -52.550781 8.691406 -58.851562 10.953125 -64.59375 C 13.222656 -70.34375 16.445312 -75.347656 20.625 -79.609375 C 24.800781 -83.878906 29.691406 -87.1875 35.296875 -89.53125 C 40.910156 -91.882812 47.066406 -93.0625 53.765625 -93.0625 C 60.734375 -93.0625 67.175781 -91.796875 73.09375 -89.265625 C 79.007812 -86.742188 84.117188 -83.222656 88.421875 -78.703125 C 92.734375 -74.179688 95.84375 -68.914062 97.75 -62.90625 L 85.234375 -62.90625 C 82.359375 -68.820312 78.222656 -73.410156 72.828125 -76.671875 C 67.429688 -79.941406 61.207031 -81.578125 54.15625 -81.578125 C 47.375 -81.578125 41.347656 -80.050781 36.078125 -77 C 30.816406 -73.957031 26.707031 -69.738281 23.75 -64.34375 C 20.789062 -58.945312 19.3125 -52.726562 19.3125 -45.6875 C 19.3125 -38.632812 20.8125 -32.410156 23.8125 -27.015625 C 26.820312 -21.617188 30.957031 -17.394531 36.21875 -14.34375 C 41.476562 -11.300781 47.503906 -9.78125 54.296875 -9.78125 C 60.472656 -9.78125 65.953125 -11 70.734375 -13.4375 C 75.523438 -15.875 79.421875 -19.242188 82.421875 -23.546875 C 85.421875 -27.859375 87.3125 -32.882812 88.09375 -38.625 L 50.90625 -38.625 L 50.90625 -49.59375 L 100.5 -49.59375 C 100.675781 -39.59375 98.828125 -30.738281 94.953125 -23.03125 C 91.078125 -15.332031 85.632812 -9.285156 78.625 -4.890625 C 71.625 -0.492188 63.425781 1.703125 54.03125 1.703125 Z M 54.03125 1.703125 "/></g></g></g><g fill="#ffffff" fill-opacity="1"><g transform="translate(106.627114, 139.024637)"><g><path d="M 42.671875 1.703125 C 35.628906 1.703125 29.410156 0.179688 24.015625 -2.859375 C 18.617188 -5.910156 14.394531 -10.132812 11.34375 -15.53125 C 8.300781 -20.925781 6.78125 -27.0625 6.78125 -33.9375 C 6.78125 -40.894531 8.300781 -47.023438 11.34375 -52.328125 C 14.394531 -57.640625 18.617188 -61.816406 24.015625 -64.859375 C 29.410156 -67.910156 35.628906 -69.4375 42.671875 -69.4375 C 49.722656 -69.4375 55.945312 -67.910156 61.34375 -64.859375 C 66.738281 -61.816406 70.957031 -57.640625 74 -52.328125 C 77.050781 -47.023438 78.578125 -40.894531 78.578125 -33.9375 C 78.578125 -27.0625 77.050781 -20.925781 74 -15.53125 C 70.957031 -10.132812 66.738281 -5.910156 61.34375 -2.859375 C 55.945312 0.179688 49.722656 1.703125 42.671875 1.703125 Z M 17.75 -33.9375 C 17.75 -28.976562 18.8125 -24.601562 20.9375 -20.8125 C 23.070312 -17.03125 26.007812 -14.09375 29.75 -12 C 33.5 -9.914062 37.804688 -8.875 42.671875 -8.875 C 47.546875 -8.875 51.851562 -9.914062 55.59375 -12 C 59.34375 -14.09375 62.28125 -17.03125 64.40625 -20.8125 C 66.539062 -24.601562 67.609375 -28.976562 67.609375 -33.9375 C 67.609375 -38.894531 66.539062 -43.242188 64.40625 -46.984375 C 62.28125 -50.722656 59.34375 -53.660156 55.59375 -55.796875 C 51.851562 -57.929688 47.546875 -59 42.671875 -59 C 37.804688 -59 33.5 -57.929688 29.75 -55.796875 C 26.007812 -53.660156 23.070312 -50.722656 20.9375 -46.984375 C 18.8125 -43.242188 17.75 -38.894531 17.75 -33.9375 Z M 17.75 -33.9375 "/></g></g></g></g></g></svg>