<svg xmlns="http://www.w3.org/2000/svg" xmlns:xlink="http://www.w3.org/1999/xlink" width="1920" zoomAndPan="magnify" viewBox="0 0 1440 525.000007" height="700" preserveAspectRatio="xMidYMid meet" version="1.2"><defs/><g id="85896eeb04"><g style="fill:#4f39f6;fill-opacity:1;"><g transform="translate(1.368812, 364.073873)"><path style="stroke:none" d="M 122.28125 4.171875 C 101 4.171875 82.109375 -0.445312 65.609375 -9.6875 C 49.109375 -18.9375 36.1875 -31.710938 26.84375 -48.015625 C 17.5 -64.316406 12.828125 -83.101562 12.828125 -104.375 C 12.828125 -125.65625 17.445312 -144.445312 26.6875 -160.75 C 35.9375 -177.050781 48.757812 -189.820312 65.15625 -199.0625 C 81.5625 -208.3125 100.300781 -212.9375 121.375 -212.9375 C 138.28125 -212.9375 153.890625 -209.953125 168.203125 -203.984375 C 182.515625 -198.023438 194.691406 -189.625 204.734375 -178.78125 C 214.773438 -167.945312 221.882812 -155.175781 226.0625 -140.46875 L 175.0625 -140.46875 C 170.09375 -149.613281 162.984375 -156.71875 153.734375 -161.78125 C 144.492188 -166.851562 134.007812 -169.390625 122.28125 -169.390625 C 110.144531 -169.390625 99.40625 -166.609375 90.0625 -161.046875 C 80.71875 -155.484375 73.410156 -147.828125 68.140625 -138.078125 C 62.878906 -128.335938 60.25 -117.101562 60.25 -104.375 C 60.25 -91.851562 62.832031 -80.71875 68 -70.96875 C 73.164062 -61.226562 80.421875 -53.523438 89.765625 -47.859375 C 99.109375 -42.191406 110.144531 -39.359375 122.875 -39.359375 C 138.1875 -39.359375 150.910156 -43.234375 161.046875 -50.984375 C 171.179688 -58.742188 177.742188 -68.988281 180.734375 -81.71875 L 113.03125 -81.71875 L 113.03125 -118.40625 L 230.828125 -118.40625 C 232.023438 -100.507812 230.285156 -84.101562 225.609375 -69.1875 C 220.941406 -54.28125 213.785156 -41.304688 204.140625 -30.265625 C 194.492188 -19.234375 182.757812 -10.734375 168.9375 -4.765625 C 155.125 1.191406 139.570312 4.171875 122.28125 4.171875 Z M 122.28125 4.171875 "/></g></g><g style="fill:#4f39f6;fill-opacity:1;"><g transform="translate(244.723818, 364.073873)"><path style="stroke:none" d="M 99.609375 4.171875 C 82.304688 4.171875 67.046875 0.691406 53.828125 -6.265625 C 40.609375 -13.222656 30.269531 -22.914062 22.8125 -35.34375 C 15.351562 -47.769531 11.625 -62.132812 11.625 -78.4375 C 11.625 -94.738281 15.351562 -109.050781 22.8125 -121.375 C 30.269531 -133.707031 40.609375 -143.351562 53.828125 -150.3125 C 67.046875 -157.269531 82.304688 -160.75 99.609375 -160.75 C 116.910156 -160.75 132.171875 -157.269531 145.390625 -150.3125 C 158.609375 -143.351562 168.894531 -133.707031 176.25 -121.375 C 183.613281 -109.050781 187.296875 -94.738281 187.296875 -78.4375 C 187.296875 -62.132812 183.613281 -47.769531 176.25 -35.34375 C 168.894531 -22.914062 158.609375 -13.222656 145.390625 -6.265625 C 132.171875 0.691406 116.910156 4.171875 99.609375 4.171875 Z M 56.359375 -78.4375 C 56.359375 -65.707031 60.382812 -55.265625 68.4375 -47.109375 C 76.488281 -38.960938 86.878906 -34.890625 99.609375 -34.890625 C 112.335938 -34.890625 122.675781 -38.960938 130.625 -47.109375 C 138.582031 -55.265625 142.5625 -65.707031 142.5625 -78.4375 C 142.5625 -91.363281 138.582031 -101.851562 130.625 -109.90625 C 122.675781 -117.957031 112.335938 -121.984375 99.609375 -121.984375 C 86.878906 -121.984375 76.488281 -117.957031 68.4375 -109.90625 C 60.382812 -101.851562 56.359375 -91.363281 56.359375 -78.4375 Z M 56.359375 -78.4375 "/></g></g><g style="fill:#000000;fill-opacity:1;"><g transform="translate(443.64288, 364.073873)"><path style="stroke:none" d="M 25.046875 0 L 25.046875 -208.765625 L 106.765625 -208.765625 C 123.671875 -208.765625 138.285156 -205.679688 150.609375 -199.515625 C 162.929688 -193.359375 172.519531 -184.613281 179.375 -173.28125 C 186.238281 -161.945312 189.671875 -148.625 189.671875 -133.3125 C 189.671875 -118.195312 186.238281 -104.972656 179.375 -93.640625 C 172.519531 -82.304688 162.929688 -73.554688 150.609375 -67.390625 C 138.285156 -61.234375 123.671875 -58.15625 106.765625 -58.15625 L 72.46875 -58.15625 L 72.46875 0 Z M 72.171875 -99.015625 L 102.890625 -99.015625 C 115.210938 -99.015625 124.703125 -101.945312 131.359375 -107.8125 C 138.023438 -113.675781 141.359375 -122.078125 141.359375 -133.015625 C 141.359375 -143.953125 138.023438 -152.398438 131.359375 -158.359375 C 124.703125 -164.328125 115.210938 -167.3125 102.890625 -167.3125 L 72.171875 -167.3125 Z M 72.171875 -99.015625 "/></g></g><g style="fill:#000000;fill-opacity:1;"><g transform="translate(641.965266, 364.073873)"><path style="stroke:none" d="M 22.671875 0 L 22.671875 -220.6875 L 68 -220.6875 L 68 -144.640625 C 73.957031 -150.015625 80.910156 -154.039062 88.859375 -156.71875 C 96.816406 -159.40625 105.171875 -160.75 113.921875 -160.75 C 134.203125 -160.75 150.109375 -154.484375 161.640625 -141.953125 C 173.171875 -129.429688 178.9375 -112.234375 178.9375 -90.359375 L 178.9375 0 L 133.609375 0 L 133.609375 -85.890625 C 133.609375 -97.421875 130.875 -106.316406 125.40625 -112.578125 C 119.9375 -118.847656 112.332031 -121.984375 102.59375 -121.984375 C 92.25 -121.984375 83.894531 -118.453125 77.53125 -111.390625 C 71.175781 -104.328125 68 -94.632812 68 -82.3125 L 68 0 Z M 22.671875 0 "/></g></g><g style="fill:#000000;fill-opacity:1;"><g transform="translate(840.585929, 364.073873)"><path style="stroke:none" d="M 99.609375 4.171875 C 82.304688 4.171875 67.046875 0.691406 53.828125 -6.265625 C 40.609375 -13.222656 30.269531 -22.914062 22.8125 -35.34375 C 15.351562 -47.769531 11.625 -62.132812 11.625 -78.4375 C 11.625 -94.738281 15.351562 -109.050781 22.8125 -121.375 C 30.269531 -133.707031 40.609375 -143.351562 53.828125 -150.3125 C 67.046875 -157.269531 82.304688 -160.75 99.609375 -160.75 C 116.910156 -160.75 132.171875 -157.269531 145.390625 -150.3125 C 158.609375 -143.351562 168.894531 -133.707031 176.25 -121.375 C 183.613281 -109.050781 187.296875 -94.738281 187.296875 -78.4375 C 187.296875 -62.132812 183.613281 -47.769531 176.25 -35.34375 C 168.894531 -22.914062 158.609375 -13.222656 145.390625 -6.265625 C 132.171875 0.691406 116.910156 4.171875 99.609375 4.171875 Z M 56.359375 -78.4375 C 56.359375 -65.707031 60.382812 -55.265625 68.4375 -47.109375 C 76.488281 -38.960938 86.878906 -34.890625 99.609375 -34.890625 C 112.335938 -34.890625 122.675781 -38.960938 130.625 -47.109375 C 138.582031 -55.265625 142.5625 -65.707031 142.5625 -78.4375 C 142.5625 -91.363281 138.582031 -101.851562 130.625 -109.90625 C 122.675781 -117.957031 112.335938 -121.984375 99.609375 -121.984375 C 86.878906 -121.984375 76.488281 -117.957031 68.4375 -109.90625 C 60.382812 -101.851562 56.359375 -91.363281 56.359375 -78.4375 Z M 56.359375 -78.4375 "/></g></g><g style="fill:#000000;fill-opacity:1;"><g transform="translate(1039.50479, 364.073873)"><path style="stroke:none" d="M 22.671875 0 L 22.671875 -156.578125 L 56.359375 -156.578125 L 61.140625 -138.984375 C 67.503906 -146.335938 75.207031 -151.800781 84.25 -155.375 C 93.300781 -158.957031 102.992188 -160.75 113.328125 -160.75 C 133.804688 -160.75 149.859375 -154.382812 161.484375 -141.65625 C 173.117188 -128.9375 178.9375 -111.738281 178.9375 -90.0625 L 178.9375 0 L 133.609375 0 L 133.609375 -85.296875 C 133.609375 -96.828125 130.875 -105.820312 125.40625 -112.28125 C 119.9375 -118.75 112.332031 -121.984375 102.59375 -121.984375 C 92.25 -121.984375 83.894531 -118.398438 77.53125 -111.234375 C 71.175781 -104.078125 68 -94.335938 68 -82.015625 L 68 0 Z M 22.671875 0 "/></g></g><g style="fill:#000000;fill-opacity:1;"><g transform="translate(1238.125493, 364.073873)"><path style="stroke:none" d="M 96.625 4.171875 C 79.925781 4.171875 65.164062 0.691406 52.34375 -6.265625 C 39.519531 -13.222656 29.523438 -22.914062 22.359375 -35.34375 C 15.203125 -47.769531 11.625 -62.132812 11.625 -78.4375 C 11.625 -94.738281 15.253906 -109.050781 22.515625 -121.375 C 29.773438 -133.707031 39.816406 -143.351562 52.640625 -150.3125 C 65.460938 -157.269531 80.320312 -160.75 97.21875 -160.75 C 115.113281 -160.75 130.570312 -156.769531 143.59375 -148.8125 C 156.625 -140.863281 166.566406 -129.726562 173.421875 -115.40625 C 180.285156 -101.09375 183.21875 -84.394531 182.21875 -65.3125 L 56.671875 -65.3125 C 58.847656 -54.570312 63.613281 -46.367188 70.96875 -40.703125 C 78.332031 -35.035156 87.179688 -32.203125 97.515625 -32.203125 C 105.078125 -32.203125 111.988281 -33.644531 118.25 -36.53125 C 124.507812 -39.414062 129.53125 -43.441406 133.3125 -48.609375 L 179.234375 -48.609375 C 172.472656 -32.109375 161.835938 -19.1875 147.328125 -9.84375 C 132.816406 -0.5 115.914062 4.171875 96.625 4.171875 Z M 56.96875 -93.9375 L 138.375 -93.9375 C 135.789062 -103.488281 130.96875 -110.992188 123.90625 -116.453125 C 116.851562 -121.921875 108.054688 -124.65625 97.515625 -124.65625 C 87.578125 -124.65625 78.976562 -121.921875 71.71875 -116.453125 C 64.46875 -110.992188 59.550781 -103.488281 56.96875 -93.9375 Z M 56.96875 -93.9375 "/></g></g></g></svg>