<svg xmlns="http://www.w3.org/2000/svg" xmlns:xlink="http://www.w3.org/1999/xlink" width="1920" zoomAndPan="magnify" viewBox="0 0 1440 525.000007" height="700" preserveAspectRatio="xMidYMid meet" version="1.2"><defs/><g id="ac6337f957"><g style="fill:#ffffff;fill-opacity:1;"><g transform="translate(-1.694183, 362.84149)"><path style="stroke:none" d="M 123.578125 3.875 C 108.253906 3.875 94.125 1.191406 81.1875 -4.171875 C 68.25 -9.546875 57.003906 -17.054688 47.453125 -26.703125 C 37.898438 -36.359375 30.488281 -47.800781 25.21875 -61.03125 C 19.945312 -74.269531 17.3125 -88.75 17.3125 -104.46875 C 17.3125 -120.1875 19.894531 -134.613281 25.0625 -147.75 C 30.238281 -160.882812 37.601562 -172.328125 47.15625 -182.078125 C 56.707031 -191.828125 67.898438 -199.382812 80.734375 -204.75 C 93.578125 -210.125 107.65625 -212.8125 122.96875 -212.8125 C 138.894531 -212.8125 153.625 -209.925781 167.15625 -204.15625 C 180.6875 -198.382812 192.375 -190.328125 202.21875 -179.984375 C 212.070312 -169.640625 219.1875 -157.601562 223.5625 -143.875 L 194.90625 -143.875 C 188.34375 -157.40625 178.890625 -167.898438 166.546875 -175.359375 C 154.210938 -182.816406 139.988281 -186.546875 123.875 -186.546875 C 108.351562 -186.546875 94.570312 -183.0625 82.53125 -176.09375 C 70.488281 -169.132812 61.082031 -159.484375 54.3125 -147.140625 C 47.550781 -134.804688 44.171875 -120.582031 44.171875 -104.46875 C 44.171875 -88.351562 47.601562 -74.125 54.46875 -61.78125 C 61.332031 -49.445312 70.785156 -39.796875 82.828125 -32.828125 C 94.867188 -25.867188 108.648438 -22.390625 124.171875 -22.390625 C 138.296875 -22.390625 150.828125 -25.171875 161.765625 -30.734375 C 172.710938 -36.304688 181.617188 -44.019531 188.484375 -53.875 C 195.359375 -63.726562 199.691406 -75.21875 201.484375 -88.34375 L 116.40625 -88.34375 L 116.40625 -113.421875 L 229.828125 -113.421875 C 230.234375 -90.535156 226.003906 -70.285156 217.140625 -52.671875 C 208.285156 -35.066406 195.847656 -21.238281 179.828125 -11.1875 C 163.816406 -1.144531 145.066406 3.875 123.578125 3.875 Z M 123.578125 3.875 "/></g></g><g style="fill:#ffffff;fill-opacity:1;"><g transform="translate(244.473672, 362.84149)"><path style="stroke:none" d="M 97.609375 3.875 C 81.484375 3.875 67.253906 0.394531 54.921875 -6.5625 C 42.585938 -13.53125 32.9375 -23.179688 25.96875 -35.515625 C 19 -47.859375 15.515625 -61.890625 15.515625 -77.609375 C 15.515625 -93.523438 19 -107.550781 25.96875 -119.6875 C 32.9375 -131.832031 42.585938 -141.382812 54.921875 -148.34375 C 67.253906 -155.3125 81.484375 -158.796875 97.609375 -158.796875 C 113.722656 -158.796875 127.945312 -155.3125 140.28125 -148.34375 C 152.625 -141.382812 162.273438 -131.832031 169.234375 -119.6875 C 176.203125 -107.550781 179.6875 -93.523438 179.6875 -77.609375 C 179.6875 -61.890625 176.203125 -47.859375 169.234375 -35.515625 C 162.273438 -23.179688 152.625 -13.53125 140.28125 -6.5625 C 127.945312 0.394531 113.722656 3.875 97.609375 3.875 Z M 40.59375 -77.609375 C 40.59375 -66.265625 43.03125 -56.265625 47.90625 -47.609375 C 52.78125 -38.953125 59.492188 -32.234375 68.046875 -27.453125 C 76.609375 -22.679688 86.460938 -20.296875 97.609375 -20.296875 C 108.742188 -20.296875 118.585938 -22.679688 127.140625 -27.453125 C 135.703125 -32.234375 142.421875 -38.953125 147.296875 -47.609375 C 152.171875 -56.265625 154.609375 -66.265625 154.609375 -77.609375 C 154.609375 -88.953125 152.171875 -98.898438 147.296875 -107.453125 C 142.421875 -116.015625 135.703125 -122.734375 127.140625 -127.609375 C 118.585938 -132.484375 108.742188 -134.921875 97.609375 -134.921875 C 86.460938 -134.921875 76.609375 -132.484375 68.046875 -127.609375 C 59.492188 -122.734375 52.78125 -116.015625 47.90625 -107.453125 C 43.03125 -98.898438 40.59375 -88.953125 40.59375 -77.609375 Z M 40.59375 -77.609375 "/></g></g><g style="fill:#ffffff;fill-opacity:1;"><g transform="translate(439.680022, 362.84149)"><path style="stroke:none" d="M 25.078125 0 L 25.078125 -208.9375 L 106.859375 -208.9375 C 123.773438 -208.9375 138.398438 -205.851562 150.734375 -199.6875 C 163.066406 -193.519531 172.664062 -184.765625 179.53125 -173.421875 C 186.40625 -162.078125 189.84375 -148.742188 189.84375 -133.421875 C 189.84375 -118.296875 186.40625 -105.0625 179.53125 -93.71875 C 172.664062 -82.375 163.066406 -73.617188 150.734375 -67.453125 C 138.398438 -61.285156 123.773438 -58.203125 106.859375 -58.203125 L 72.53125 -58.203125 L 72.53125 0 Z M 72.234375 -99.09375 L 102.984375 -99.09375 C 115.316406 -99.09375 124.816406 -102.023438 131.484375 -107.890625 C 138.148438 -113.765625 141.484375 -122.175781 141.484375 -133.125 C 141.484375 -144.070312 138.148438 -152.53125 131.484375 -158.5 C 124.816406 -164.46875 115.316406 -167.453125 102.984375 -167.453125 L 72.234375 -167.453125 Z M 72.234375 -99.09375 "/></g></g><g style="fill:#ffffff;fill-opacity:1;"><g transform="translate(638.106307, 362.84149)"><path style="stroke:none" d="M 22.6875 0 L 22.6875 -220.875 L 68.046875 -220.875 L 68.046875 -144.765625 C 74.023438 -150.140625 80.992188 -154.171875 88.953125 -156.859375 C 96.910156 -159.546875 105.265625 -160.890625 114.015625 -160.890625 C 134.316406 -160.890625 150.238281 -154.617188 161.78125 -142.078125 C 173.320312 -129.546875 179.09375 -112.332031 179.09375 -90.4375 L 179.09375 0 L 133.71875 0 L 133.71875 -85.96875 C 133.71875 -97.507812 130.976562 -106.410156 125.5 -112.671875 C 120.03125 -118.941406 112.421875 -122.078125 102.671875 -122.078125 C 92.328125 -122.078125 83.96875 -118.546875 77.59375 -111.484375 C 71.226562 -104.421875 68.046875 -94.71875 68.046875 -82.375 L 68.046875 0 Z M 22.6875 0 "/></g></g><g style="fill:#ffffff;fill-opacity:1;"><g transform="translate(836.830909, 362.84149)"><path style="stroke:none" d="M 99.6875 4.171875 C 82.375 4.171875 67.101562 0.691406 53.875 -6.265625 C 40.644531 -13.234375 30.296875 -22.9375 22.828125 -35.375 C 15.367188 -47.8125 11.640625 -62.1875 11.640625 -78.5 C 11.640625 -94.820312 15.367188 -109.148438 22.828125 -121.484375 C 30.296875 -133.816406 40.644531 -143.46875 53.875 -150.4375 C 67.101562 -157.40625 82.375 -160.890625 99.6875 -160.890625 C 117 -160.890625 132.269531 -157.40625 145.5 -150.4375 C 158.738281 -143.46875 169.039062 -133.816406 176.40625 -121.484375 C 183.769531 -109.148438 187.453125 -94.820312 187.453125 -78.5 C 187.453125 -62.1875 183.769531 -47.8125 176.40625 -35.375 C 169.039062 -22.9375 158.738281 -13.234375 145.5 -6.265625 C 132.269531 0.691406 117 4.171875 99.6875 4.171875 Z M 56.40625 -78.5 C 56.40625 -65.757812 60.4375 -55.3125 68.5 -47.15625 C 76.5625 -39 86.957031 -34.921875 99.6875 -34.921875 C 112.425781 -34.921875 122.773438 -39 130.734375 -47.15625 C 138.691406 -55.3125 142.671875 -65.757812 142.671875 -78.5 C 142.671875 -91.4375 138.691406 -101.929688 130.734375 -109.984375 C 122.773438 -118.046875 112.425781 -122.078125 99.6875 -122.078125 C 86.957031 -122.078125 76.5625 -118.046875 68.5 -109.984375 C 60.4375 -101.929688 56.40625 -91.4375 56.40625 -78.5 Z M 56.40625 -78.5 "/></g></g><g style="fill:#ffffff;fill-opacity:1;"><g transform="translate(1035.854019, 362.84149)"><path style="stroke:none" d="M 22.6875 0 L 22.6875 -156.703125 L 56.40625 -156.703125 L 61.1875 -139.09375 C 67.550781 -146.457031 75.257812 -151.929688 84.3125 -155.515625 C 93.375 -159.097656 103.078125 -160.890625 113.421875 -160.890625 C 133.921875 -160.890625 149.988281 -154.519531 161.625 -141.78125 C 173.269531 -129.039062 179.09375 -111.828125 179.09375 -90.140625 L 179.09375 0 L 133.71875 0 L 133.71875 -85.359375 C 133.71875 -96.898438 130.976562 -105.90625 125.5 -112.375 C 120.03125 -118.84375 112.421875 -122.078125 102.671875 -122.078125 C 92.328125 -122.078125 83.96875 -118.492188 77.59375 -111.328125 C 71.226562 -104.171875 68.046875 -94.421875 68.046875 -82.078125 L 68.046875 0 Z M 22.6875 0 "/></g></g><g style="fill:#ffffff;fill-opacity:1;"><g transform="translate(1234.578621, 362.84149)"><path style="stroke:none" d="M 96.703125 4.171875 C 79.992188 4.171875 65.21875 0.691406 52.375 -6.265625 C 39.539062 -13.234375 29.539062 -22.9375 22.375 -35.375 C 15.21875 -47.8125 11.640625 -62.1875 11.640625 -78.5 C 11.640625 -94.820312 15.269531 -109.148438 22.53125 -121.484375 C 29.800781 -133.816406 39.851562 -143.46875 52.6875 -150.4375 C 65.519531 -157.40625 80.394531 -160.890625 97.3125 -160.890625 C 115.21875 -160.890625 130.6875 -156.90625 143.71875 -148.9375 C 156.75 -140.976562 166.695312 -129.832031 173.5625 -115.5 C 180.425781 -101.175781 183.363281 -84.46875 182.375 -65.375 L 56.71875 -65.375 C 58.90625 -54.625 63.675781 -46.410156 71.03125 -40.734375 C 78.394531 -35.066406 87.253906 -32.234375 97.609375 -32.234375 C 105.171875 -32.234375 112.082031 -33.675781 118.34375 -36.5625 C 124.613281 -39.445312 129.640625 -43.476562 133.421875 -48.65625 L 179.390625 -48.65625 C 172.617188 -32.132812 161.96875 -19.195312 147.4375 -9.84375 C 132.914062 -0.5 116.003906 4.171875 96.703125 4.171875 Z M 57.015625 -94.015625 L 138.5 -94.015625 C 135.90625 -103.566406 131.078125 -111.078125 124.015625 -116.546875 C 116.953125 -122.023438 108.148438 -124.765625 97.609375 -124.765625 C 87.660156 -124.765625 79.050781 -122.023438 71.78125 -116.546875 C 64.519531 -111.078125 59.597656 -103.566406 57.015625 -94.015625 Z M 57.015625 -94.015625 "/></g></g></g></svg>