<svg xmlns="http://www.w3.org/2000/svg" xmlns:xlink="http://www.w3.org/1999/xlink" width="940" zoomAndPan="magnify" viewBox="0 0 705 591.000005" height="788" preserveAspectRatio="xMidYMid meet" version="1.0"><defs><g/></defs><g fill="#ffffff" fill-opacity="1"><g transform="translate(8.225216, 419.206781)"><g><path d="M 17.453125 0 L 17.453125 -145.484375 L 74.40625 -145.484375 C 86.175781 -145.484375 96.359375 -143.332031 104.953125 -139.03125 C 113.546875 -134.738281 120.226562 -128.644531 125 -120.75 C 129.78125 -112.851562 132.171875 -103.570312 132.171875 -92.90625 C 132.171875 -82.375 129.78125 -73.15625 125 -65.25 C 120.226562 -57.351562 113.546875 -51.257812 104.953125 -46.96875 C 96.359375 -42.675781 86.175781 -40.53125 74.40625 -40.53125 L 50.5 -40.53125 L 50.5 0 Z M 50.296875 -69 L 71.703125 -69 C 80.296875 -69 86.910156 -71.039062 91.546875 -75.125 C 96.191406 -79.21875 98.515625 -85.070312 98.515625 -92.6875 C 98.515625 -100.3125 96.191406 -106.203125 91.546875 -110.359375 C 86.910156 -114.515625 80.296875 -116.59375 71.703125 -116.59375 L 50.296875 -116.59375 Z M 50.296875 -69 "/></g></g></g><g fill="#ffffff" fill-opacity="1"><g transform="translate(146.431725, 419.206781)"><g><path d="M 15.796875 0 L 15.796875 -153.796875 L 47.390625 -153.796875 L 47.390625 -100.796875 C 51.546875 -104.535156 56.394531 -107.335938 61.9375 -109.203125 C 67.476562 -111.078125 73.296875 -112.015625 79.390625 -112.015625 C 93.523438 -112.015625 104.609375 -107.648438 112.640625 -98.921875 C 120.679688 -90.191406 124.703125 -78.207031 124.703125 -62.96875 L 124.703125 0 L 93.109375 0 L 93.109375 -59.859375 C 93.109375 -67.890625 91.203125 -74.085938 87.390625 -78.453125 C 83.578125 -82.816406 78.28125 -85 71.5 -85 C 64.289062 -85 58.46875 -82.539062 54.03125 -77.625 C 49.601562 -72.707031 47.390625 -65.953125 47.390625 -57.359375 L 47.390625 0 Z M 15.796875 0 "/></g></g></g><g fill="#ffffff" fill-opacity="1"><g transform="translate(284.846063, 419.206781)"><g><path d="M 69.421875 2.90625 C 57.359375 2.90625 46.71875 0.484375 37.5 -4.359375 C 28.289062 -9.210938 21.085938 -15.96875 15.890625 -24.625 C 10.703125 -33.28125 8.109375 -43.289062 8.109375 -54.65625 C 8.109375 -66.019531 10.703125 -75.992188 15.890625 -84.578125 C 21.085938 -93.171875 28.289062 -99.890625 37.5 -104.734375 C 46.71875 -109.585938 57.359375 -112.015625 69.421875 -112.015625 C 81.472656 -112.015625 92.101562 -109.585938 101.3125 -104.734375 C 110.53125 -99.890625 117.703125 -93.171875 122.828125 -84.578125 C 127.953125 -75.992188 130.515625 -66.019531 130.515625 -54.65625 C 130.515625 -43.289062 127.953125 -33.28125 122.828125 -24.625 C 117.703125 -15.96875 110.53125 -9.210938 101.3125 -4.359375 C 92.101562 0.484375 81.472656 2.90625 69.421875 2.90625 Z M 39.28125 -54.65625 C 39.28125 -45.789062 42.082031 -38.515625 47.6875 -32.828125 C 53.300781 -27.148438 60.546875 -24.3125 69.421875 -24.3125 C 78.285156 -24.3125 85.488281 -27.148438 91.03125 -32.828125 C 96.570312 -38.515625 99.34375 -45.789062 99.34375 -54.65625 C 99.34375 -63.664062 96.570312 -70.972656 91.03125 -76.578125 C 85.488281 -82.191406 78.285156 -85 69.421875 -85 C 60.546875 -85 53.300781 -82.191406 47.6875 -76.578125 C 42.082031 -70.972656 39.28125 -63.664062 39.28125 -54.65625 Z M 39.28125 -54.65625 "/></g></g></g><g fill="#ffffff" fill-opacity="1"><g transform="translate(423.468208, 419.206781)"><g><path d="M 15.796875 0 L 15.796875 -109.109375 L 39.28125 -109.109375 L 42.609375 -96.84375 C 47.035156 -101.96875 52.398438 -105.773438 58.703125 -108.265625 C 65.015625 -110.765625 71.769531 -112.015625 78.96875 -112.015625 C 93.238281 -112.015625 104.425781 -107.582031 112.53125 -98.71875 C 120.644531 -89.851562 124.703125 -77.867188 124.703125 -62.765625 L 124.703125 0 L 93.109375 0 L 93.109375 -59.4375 C 93.109375 -67.476562 91.203125 -73.75 87.390625 -78.25 C 83.578125 -82.75 78.28125 -85 71.5 -85 C 64.289062 -85 58.46875 -82.503906 54.03125 -77.515625 C 49.601562 -72.523438 47.390625 -65.738281 47.390625 -57.15625 L 47.390625 0 Z M 15.796875 0 "/></g></g></g><g fill="#ffffff" fill-opacity="1"><g transform="translate(561.882567, 419.206781)"><g><path d="M 67.34375 2.90625 C 55.695312 2.90625 45.40625 0.484375 36.46875 -4.359375 C 27.53125 -9.210938 20.566406 -15.96875 15.578125 -24.625 C 10.597656 -33.28125 8.109375 -43.289062 8.109375 -54.65625 C 8.109375 -66.019531 10.632812 -75.992188 15.6875 -84.578125 C 20.75 -93.171875 27.75 -99.890625 36.6875 -104.734375 C 45.625 -109.585938 55.976562 -112.015625 67.75 -112.015625 C 80.21875 -112.015625 90.988281 -109.242188 100.0625 -103.703125 C 109.144531 -98.160156 116.070312 -90.398438 120.84375 -80.421875 C 125.625 -70.453125 127.671875 -58.816406 126.984375 -45.515625 L 39.484375 -45.515625 C 41.003906 -38.035156 44.328125 -32.320312 49.453125 -28.375 C 54.585938 -24.425781 60.753906 -22.453125 67.953125 -22.453125 C 73.222656 -22.453125 78.039062 -23.453125 82.40625 -25.453125 C 86.769531 -27.460938 90.269531 -30.269531 92.90625 -33.875 L 124.90625 -33.875 C 120.195312 -22.375 112.785156 -13.367188 102.671875 -6.859375 C 92.554688 -0.347656 80.78125 2.90625 67.34375 2.90625 Z M 39.6875 -65.46875 L 96.4375 -65.46875 C 94.632812 -72.113281 91.269531 -77.34375 86.34375 -81.15625 C 81.425781 -84.96875 75.296875 -86.875 67.953125 -86.875 C 61.023438 -86.875 55.03125 -84.96875 49.96875 -81.15625 C 44.914062 -77.34375 41.488281 -72.113281 39.6875 -65.46875 Z M 39.6875 -65.46875 "/></g></g></g><g fill="#ffffff" fill-opacity="1"><g transform="translate(8.225216, 255.103975)"><g><path d="M 86.046875 2.703125 C 75.367188 2.703125 65.523438 0.832031 56.515625 -2.90625 C 47.515625 -6.644531 39.6875 -11.875 33.03125 -18.59375 C 26.382812 -25.320312 21.222656 -33.289062 17.546875 -42.5 C 13.878906 -51.71875 12.046875 -61.796875 12.046875 -72.734375 C 12.046875 -83.679688 13.847656 -93.726562 17.453125 -102.875 C 21.054688 -112.019531 26.179688 -119.984375 32.828125 -126.765625 C 39.484375 -133.554688 47.28125 -138.820312 56.21875 -142.5625 C 65.15625 -146.3125 74.957031 -148.1875 85.625 -148.1875 C 96.707031 -148.1875 106.957031 -146.175781 116.375 -142.15625 C 125.800781 -138.132812 133.941406 -132.519531 140.796875 -125.3125 C 147.660156 -118.113281 152.613281 -109.734375 155.65625 -100.171875 L 135.71875 -100.171875 C 131.144531 -109.597656 124.5625 -116.90625 115.96875 -122.09375 C 107.375 -127.289062 97.46875 -129.890625 86.25 -129.890625 C 75.4375 -129.890625 65.835938 -127.460938 57.453125 -122.609375 C 49.078125 -117.765625 42.535156 -111.046875 37.828125 -102.453125 C 33.117188 -93.867188 30.765625 -83.960938 30.765625 -72.734375 C 30.765625 -61.515625 33.148438 -51.609375 37.921875 -43.015625 C 42.703125 -34.429688 49.285156 -27.710938 57.671875 -22.859375 C 66.054688 -18.015625 75.648438 -15.59375 86.453125 -15.59375 C 96.296875 -15.59375 105.023438 -17.53125 112.640625 -21.40625 C 120.265625 -25.28125 126.460938 -30.644531 131.234375 -37.5 C 136.015625 -44.363281 139.03125 -52.367188 140.28125 -61.515625 L 81.046875 -61.515625 L 81.046875 -78.96875 L 160.03125 -78.96875 C 160.300781 -63.039062 157.351562 -48.941406 151.1875 -36.671875 C 145.03125 -24.410156 136.375 -14.78125 125.21875 -7.78125 C 114.0625 -0.789062 101.003906 2.703125 86.046875 2.703125 Z M 86.046875 2.703125 "/></g></g></g><g fill="#ffffff" fill-opacity="1"><g transform="translate(178.021769, 255.103975)"><g><path d="M 67.953125 2.703125 C 56.734375 2.703125 46.828125 0.28125 38.234375 -4.5625 C 29.648438 -9.414062 22.929688 -16.132812 18.078125 -24.71875 C 13.234375 -33.3125 10.8125 -43.082031 10.8125 -54.03125 C 10.8125 -65.113281 13.234375 -74.878906 18.078125 -83.328125 C 22.929688 -91.785156 29.648438 -98.4375 38.234375 -103.28125 C 46.828125 -108.132812 56.734375 -110.5625 67.953125 -110.5625 C 79.179688 -110.5625 89.085938 -108.132812 97.671875 -103.28125 C 106.265625 -98.4375 112.984375 -91.785156 117.828125 -83.328125 C 122.679688 -74.878906 125.109375 -65.113281 125.109375 -54.03125 C 125.109375 -43.082031 122.679688 -33.3125 117.828125 -24.71875 C 112.984375 -16.132812 106.265625 -9.414062 97.671875 -4.5625 C 89.085938 0.28125 79.179688 2.703125 67.953125 2.703125 Z M 28.265625 -54.03125 C 28.265625 -46.132812 29.960938 -39.171875 33.359375 -33.140625 C 36.753906 -27.117188 41.429688 -22.441406 47.390625 -19.109375 C 53.347656 -15.785156 60.203125 -14.125 67.953125 -14.125 C 75.710938 -14.125 82.570312 -15.785156 88.53125 -19.109375 C 94.488281 -22.441406 99.164062 -27.117188 102.5625 -33.140625 C 105.957031 -39.171875 107.65625 -46.132812 107.65625 -54.03125 C 107.65625 -61.925781 105.957031 -68.851562 102.5625 -74.8125 C 99.164062 -80.769531 94.488281 -85.445312 88.53125 -88.84375 C 82.570312 -92.238281 75.710938 -93.9375 67.953125 -93.9375 C 60.203125 -93.9375 53.347656 -92.238281 47.390625 -88.84375 C 41.429688 -85.445312 36.753906 -80.769531 33.359375 -74.8125 C 29.960938 -68.851562 28.265625 -61.925781 28.265625 -54.03125 Z M 28.265625 -54.03125 "/></g></g></g></svg>