<svg xmlns="http://www.w3.org/2000/svg" xmlns:xlink="http://www.w3.org/1999/xlink" width="1080" zoomAndPan="magnify" viewBox="0 0 810 809.999993" height="1080" preserveAspectRatio="xMidYMid meet" version="1.2"><defs><clipPath id="d808ca96f6"><path d="M 18.414062 18.410156 L 792 18.410156 L 792 791.546875 L 18.414062 791.546875 Z M 18.414062 18.410156 "/></clipPath><clipPath id="c32d93b8b3"><path d="M 791.585938 93.410156 L 791.585938 716.546875 C 791.585938 757.96875 758.007812 791.546875 716.585938 791.546875 L 93.414062 791.546875 C 51.992188 791.546875 18.414062 757.96875 18.414062 716.546875 L 18.414062 93.410156 C 18.414062 51.988281 51.992188 18.410156 93.414062 18.410156 L 716.585938 18.410156 C 758.007812 18.410156 791.585938 51.988281 791.585938 93.410156 Z M 791.585938 93.410156 "/></clipPath></defs><g id="da8249ea28"><g clip-rule="nonzero" clip-path="url(#d808ca96f6)"><g clip-rule="nonzero" clip-path="url(#c32d93b8b3)"><path style=" stroke:none;fill-rule:nonzero;fill:#4f39f6;fill-opacity:1;" d="M 18.414062 18.410156 L 791.550781 18.410156 L 791.550781 791.546875 L 18.414062 791.546875 Z M 18.414062 18.410156 "/></g></g><g style="fill:#ffffff;fill-opacity:1;"><g transform="translate(36.8261, 569.65554)"><path style="stroke:none" d="M 196.6875 6.71875 C 162.46875 6.71875 132.082031 -0.71875 105.53125 -15.59375 C 78.988281 -30.46875 58.203125 -51.015625 43.171875 -77.234375 C 28.140625 -103.460938 20.625 -133.6875 20.625 -167.90625 C 20.625 -202.125 28.0625 -232.347656 42.9375 -258.578125 C 57.8125 -284.804688 78.441406 -305.351562 104.828125 -320.21875 C 131.210938 -335.09375 161.351562 -342.53125 195.25 -342.53125 C 222.4375 -342.53125 247.539062 -337.734375 270.5625 -328.140625 C 293.59375 -318.546875 313.179688 -305.03125 329.328125 -287.59375 C 345.484375 -270.164062 356.921875 -249.617188 363.640625 -225.953125 L 281.609375 -225.953125 C 273.609375 -240.660156 262.171875 -252.09375 247.296875 -260.25 C 232.429688 -268.40625 215.5625 -272.484375 196.6875 -272.484375 C 177.175781 -272.484375 159.90625 -268.003906 144.875 -259.046875 C 129.84375 -250.097656 118.085938 -237.785156 109.609375 -222.109375 C 101.140625 -206.441406 96.90625 -188.375 96.90625 -167.90625 C 96.90625 -147.757812 101.0625 -129.847656 109.375 -114.171875 C 117.695312 -98.503906 129.375 -86.113281 144.40625 -77 C 159.4375 -67.882812 177.1875 -63.328125 197.65625 -63.328125 C 222.28125 -63.328125 242.742188 -69.5625 259.046875 -82.03125 C 275.359375 -94.507812 285.914062 -110.984375 290.71875 -131.453125 L 181.8125 -131.453125 L 181.8125 -190.453125 L 371.3125 -190.453125 C 373.226562 -161.671875 370.425781 -135.285156 362.90625 -111.296875 C 355.394531 -87.304688 343.882812 -66.4375 328.375 -48.6875 C 312.863281 -30.9375 293.992188 -17.265625 271.765625 -7.671875 C 249.535156 1.921875 224.507812 6.71875 196.6875 6.71875 Z M 196.6875 6.71875 "/></g></g><g style="fill:#ffffff;fill-opacity:1;"><g transform="translate(428.285542, 569.65554)"><path style="stroke:none" d="M 160.234375 6.71875 C 132.410156 6.71875 107.863281 1.125 86.59375 -10.0625 C 65.320312 -21.257812 48.6875 -36.851562 36.6875 -56.84375 C 24.695312 -76.832031 18.703125 -99.941406 18.703125 -126.171875 C 18.703125 -152.398438 24.695312 -175.425781 36.6875 -195.25 C 48.6875 -215.082031 65.320312 -230.59375 86.59375 -241.78125 C 107.863281 -252.976562 132.410156 -258.578125 160.234375 -258.578125 C 188.054688 -258.578125 212.597656 -252.976562 233.859375 -241.78125 C 255.128906 -230.59375 271.679688 -215.082031 283.515625 -195.25 C 295.347656 -175.425781 301.265625 -152.398438 301.265625 -126.171875 C 301.265625 -99.941406 295.347656 -76.832031 283.515625 -56.84375 C 271.679688 -36.851562 255.128906 -21.257812 233.859375 -10.0625 C 212.597656 1.125 188.054688 6.71875 160.234375 6.71875 Z M 90.671875 -126.171875 C 90.671875 -105.703125 97.144531 -88.910156 110.09375 -75.796875 C 123.050781 -62.679688 139.765625 -56.125 160.234375 -56.125 C 180.703125 -56.125 197.332031 -62.679688 210.125 -75.796875 C 222.914062 -88.910156 229.3125 -105.703125 229.3125 -126.171875 C 229.3125 -146.960938 222.914062 -163.832031 210.125 -176.78125 C 197.332031 -189.738281 180.703125 -196.21875 160.234375 -196.21875 C 139.765625 -196.21875 123.050781 -189.738281 110.09375 -176.78125 C 97.144531 -163.832031 90.671875 -146.960938 90.671875 -126.171875 Z M 90.671875 -126.171875 "/></g></g></g></svg>